<svg version="1.1" xmlns="http://www.w3.org/2000/svg" xmlns:xlink="http://www.w3.org/1999/xlink" width="549.9635" height="403.23943" viewBox="0,0,549.9635,403.23943"><defs><linearGradient x1="27.92139" y1="232.73659" x2="567.74518" y2="232.73659" gradientUnits="userSpaceOnUse" id="color-1"><stop offset="0" stop-color="#160623"/><stop offset="1" stop-color="#68008c"/></linearGradient><linearGradient x1="314.6178" y1="194.07292" x2="314.6178" y2="311.17805" gradientUnits="userSpaceOnUse" id="color-2"><stop offset="0" stop-color="#dadada"/><stop offset="1" stop-color="#ffffff"/></linearGradient><linearGradient x1="373.4527" y1="217.81537" x2="323.44195" y2="263.39119" gradientUnits="userSpaceOnUse" id="color-3"><stop offset="0" stop-color="#7c7c7c"/><stop offset="1" stop-color="#9a9a9a"/></linearGradient><linearGradient x1="285.60321" y1="196.5163" x2="298.57517" y2="262.9238" gradientUnits="userSpaceOnUse" id="color-4"><stop offset="0" stop-color="#7c7c7c"/><stop offset="1" stop-color="#9a9a9a"/></linearGradient><linearGradient x1="322.93949" y1="274.19032" x2="322.93949" y2="381.61972" gradientUnits="userSpaceOnUse" id="color-5"><stop offset="0" stop-color="#bae1ee"/><stop offset="1" stop-color="#179ce4"/></linearGradient><linearGradient x1="167.69557" y1="77.46699" x2="167.69557" y2="362.42405" gradientUnits="userSpaceOnUse" id="color-6"><stop offset="0" stop-color="#127db3"/><stop offset="1" stop-color="#3e3e3e"/></linearGradient><linearGradient x1="261.57712" y1="204.91332" x2="294.71608" y2="317.97561" gradientUnits="userSpaceOnUse" id="color-7"><stop offset="0" stop-color="#127db5"/><stop offset="1" stop-color="#3a4348"/></linearGradient><radialGradient cx="169.46796" cy="138.53735" r="15.89038" gradientUnits="userSpaceOnUse" id="color-8"><stop offset="0" stop-color="#f4f4f4"/><stop offset="1" stop-color="#d3d3d3"/></radialGradient><linearGradient x1="-449.46854" y1="-321.55744" x2="-449.45643" y2="-321.55744" gradientUnits="userSpaceOnUse" id="color-9"><stop offset="0" stop-color="#e6caff"/><stop offset="1" stop-color="#68008c"/></linearGradient></defs><g transform="translate(34.98175,21.61972)"><g data-paper-data="{&quot;isPaintingLayer&quot;:true}" fill-rule="nonzero" stroke-linecap="butt" stroke-linejoin="miter" stroke-miterlimit="10" stroke-dasharray="" stroke-dashoffset="0" style="mix-blend-mode: normal"><g><path d="M456.32555,245.65478c0,55.47801 91.35538,92.40742 46.04547,126.70461c-3.57022,2.70241 -9.54212,6.04548 -13.34676,8.55407c-4.41391,2.91028 -25.01957,-22.00969 -29.54718,-18.95534c-47.14978,31.80725 -52.14487,-32.79462 -119.01365,-32.79462c-1.09768,0 -41.4232,32.44782 -42.49869,32.42946c-111.5248,-1.90343 -107.85512,-17.66607 -139.36115,-103.36976c-9.45071,-25.70819 -15.3871,-19.83483 -15.3871,-46.80167c0,-40.39829 -9.67873,-69.42078 -15.38288,-98.59106c-1.38199,-7.0673 -6.42562,-16.02054 -9.80304,-24.72663c-1.34556,-3.46859 -5.48325,-8.59602 -4.35002,-10.95517c18.49701,-38.50662 92.26122,-76.96476 172.84934,-76.96476c76.6116,0 86.44579,57.80441 121.1269,102.02555c16.40601,20.91889 65.76849,15.96793 79.72544,42.64112c0.70722,1.35162 1.25042,3.99299 1.64436,6.92066c0.58854,4.37361 0.84408,9.38594 0.81603,11.69116c-0.32384,26.58298 -33.51701,57.20671 -33.51701,82.19237z" fill="url(#color-1)" stroke="none" stroke-width="0"/><path d="M389.10556,252.62548c0,32.33766 -33.3493,58.55257 -74.48775,58.55257c-41.13845,0 -74.48775,-26.21486 -74.48775,-58.55257c0,-22.44398 13.64241,-43.14963 37.22602,-52.97751c10.39608,-4.33229 24.67543,-5.57505 37.26173,-5.57505c41.13845,0 74.48775,26.21491 74.48775,58.55257z" fill="url(#color-2)" stroke="#7f7f7f" stroke-width="1"/><path d="M321.28758,254.68989l33.09584,-49.29519c0,0 10.75839,6.2753 15.77266,9.60384c5.57181,3.69865 12.11112,13.20439 12.11112,13.20439l-51.74405,28.77412z" fill="url(#color-3)" stroke="none" stroke-width="0"/><path d="M281.05642,256.92303l-13.67511,-52.23217c0,0 10.30782,-2.9049 15.75648,-5.46102c6.05454,-2.84033 21.48514,-6.42882 21.48514,-6.42882l-4.11197,69.74462z" fill="url(#color-4)" stroke="none" stroke-width="0"/><path d="M157.96989,359.1925l1.06798,-85.00218l278.67696,21.35929l50.1943,86.07011z" fill="url(#color-5)" stroke="none" stroke-width="0"/><path d="M158.10568,358.31412l-45.20953,-280.84708l89.04909,52.05947l80.58279,200.75909z" fill="url(#color-6)" stroke="#000000" stroke-width="0"/><path d="M160.61897,357.27991l21.34708,-146.14685l204.23063,51.81783l52.20635,33.53024z" fill="url(#color-7)" stroke="none" stroke-width="0"/><path d="M181.38579,138.53735c0,8.77604 -5.33579,15.89043 -11.91778,15.89043c-6.58199,0 -11.91783,-7.11439 -11.91783,-15.89043c0,-8.77604 5.33579,-15.89043 11.91783,-15.89043c6.58199,0 11.91778,7.11439 11.91778,15.89043z" fill="url(#color-8)" stroke="none" stroke-width="0"/><path d="M-34.98175,-21.61972v0v0v0z" fill="url(#color-9)" stroke="none" stroke-width="0"/></g></g></g></svg>