<svg version="1.1" xmlns="http://www.w3.org/2000/svg" xmlns:xlink="http://www.w3.org/1999/xlink" width="155.69356" height="96.45003" viewBox="0,0,155.69356,96.45003"><g transform="translate(-162.15321,-154.03355)"><g data-paper-data="{&quot;isPaintingLayer&quot;:true}" fill-rule="nonzero" stroke="none" stroke-linecap="butt" stroke-linejoin="miter" stroke-miterlimit="10" stroke-dasharray="" stroke-dashoffset="0" style="mix-blend-mode: normal"><path d="M162.15322,181.19824c0,-13.6433 11.06008,-24.70338 24.70338,-24.70338c0.34456,0 106.97427,0.00705 107.31539,0.02103c13.16629,0.53926 23.67478,11.38361 23.67478,24.68235c0,0.83665 -0.04159,2.93384 -0.12282,3.7491c-1.20481,12.09228 -11.12962,21.61738 -23.39572,22.1966c-0.39262,0.01854 -107.07443,0.02791 -107.47164,0.02791c-12.88295,0 -23.46258,-9.86166 -24.60179,-22.44786c-0.06724,-0.74284 -0.10159,-2.76541 -0.10159,-3.52577z" fill="#00d9d9" stroke-width="0"/><text transform="translate(175.86969,195.10625) scale(0.9442,0.9442)" font-size="40" xml:space="preserve" fill="#ffffff" fill-rule="nonzero" stroke="none" stroke-width="1" stroke-linecap="butt" stroke-linejoin="miter" stroke-miterlimit="10" stroke-dasharray="" stroke-dashoffset="0" font-family="Sans Serif" font-weight="normal" text-anchor="start" style="mix-blend-mode: normal"><tspan x="0" dy="0">RESUM</tspan><tspan x="0" dy="46.15px"> </tspan></text></g></g></svg>