<svg version="1.1" xmlns="http://www.w3.org/2000/svg" xmlns:xlink="http://www.w3.org/1999/xlink" width="951" height="951" viewBox="0,0,951,951"><defs><linearGradient x1="867.875" y1="-869.75" x2="867.875" y2="81.25" gradientUnits="userSpaceOnUse" id="color-1"><stop offset="0" stop-color="#000000"/><stop offset="1" stop-color="#000000" stop-opacity="0"/></linearGradient></defs><g transform="translate(-392.375,869.75)"><g data-paper-data="{&quot;isPaintingLayer&quot;:true}" fill-rule="nonzero" stroke-linecap="butt" stroke-linejoin="miter" stroke-miterlimit="10" stroke-dasharray="" stroke-dashoffset="0" style="mix-blend-mode: normal"><path d="M392.375,81.25v-951h951v951z" fill="url(#color-1)" stroke="#000000" stroke-width="0"/><path d="M418.71907,10.76475h35.8905c6.17263,0.01044 11.17393,5.01174 11.18437,11.18437v34.43022c-0.01304,6.17155 -5.01282,11.17133 -11.18437,11.18437h-35.8905c-2.96656,-0.0008 -5.81064,-1.18313 -7.9035,-3.28562l-0.18017,-0.19913c-1.98713,-2.0711 -3.09793,-4.82942 -3.10071,-7.69963v-34.43022c0.01044,-6.17263 5.01174,-11.17393 11.18437,-11.18437zM447.02373,36.13463c1.1101,-0.04394 2.1552,0.52324 2.72333,1.47796c0.56812,0.95472 0.56812,2.14381 0,3.09853c-0.56812,0.95472 -1.61323,1.5219 -2.72333,1.47796h-20.71882c-1.1101,0.04394 -2.1552,-0.52324 -2.72333,-1.47796c-0.56812,-0.95472 -0.56812,-2.14381 0,-3.09853c0.56812,-0.95472 1.61323,-1.5219 2.72333,-1.47796zM454.60957,16.81919h-35.8905c-2.82886,0.0104 -5.11952,2.30107 -5.12992,5.12992v34.43022c-0.00214,1.29709 0.48945,2.54639 1.37493,3.49422l0.13275,0.12327c0.95971,0.96186 2.26349,1.50111 3.62224,1.4982h35.8905c2.82779,-0.01298 5.11695,-2.30214 5.12992,-5.12992v-34.416c-0.0104,-2.82886 -2.30107,-5.11952 -5.12992,-5.12992z" fill="#ffffff" stroke="none" stroke-width="1"/><path d="M405.96382,70.2407v-98.40101h98.40101v98.40101z" fill="none" stroke="#000000" stroke-width="0"/></g></g></svg>