<svg version="1.1" xmlns="http://www.w3.org/2000/svg" xmlns:xlink="http://www.w3.org/1999/xlink" width="493.98175" height="438" viewBox="0,0,493.98175,438"><defs><linearGradient x1="-449.46854" y1="-321.55743" x2="-449.45643" y2="-321.55743" gradientUnits="userSpaceOnUse" id="color-1"><stop offset="0" stop-color="#e6caff"/><stop offset="1" stop-color="#68008c"/></linearGradient><linearGradient x1="12.62096" y1="183.25792" x2="441.77158" y2="183.25792" gradientUnits="userSpaceOnUse" id="color-2"><stop offset="0" stop-color="#160623"/><stop offset="1" stop-color="#68008c"/></linearGradient><linearGradient x1="240.53967" y1="152.52097" x2="240.53967" y2="245.61753" gradientUnits="userSpaceOnUse" id="color-3"><stop offset="0" stop-color="#dadada"/><stop offset="1" stop-color="#ffffff"/></linearGradient><linearGradient x1="287.31241" y1="171.39581" x2="247.55472" y2="207.6278" gradientUnits="userSpaceOnUse" id="color-4"><stop offset="0" stop-color="#7c7c7c"/><stop offset="1" stop-color="#9a9a9a"/></linearGradient><linearGradient x1="217.47357" y1="154.46342" x2="227.78605" y2="207.25623" gradientUnits="userSpaceOnUse" id="color-5"><stop offset="0" stop-color="#7c7c7c"/><stop offset="1" stop-color="#9a9a9a"/></linearGradient><linearGradient x1="247.15527" y1="216.21292" x2="247.15527" y2="301.61745" gradientUnits="userSpaceOnUse" id="color-6"><stop offset="0" stop-color="#bae1ee"/><stop offset="1" stop-color="#179ce4"/></linearGradient><linearGradient x1="123.73903" y1="59.82127" x2="123.73903" y2="286.35722" gradientUnits="userSpaceOnUse" id="color-7"><stop offset="0" stop-color="#127db3"/><stop offset="1" stop-color="#3e3e3e"/></linearGradient><linearGradient x1="198.37324" y1="161.1389" x2="224.71814" y2="251.02147" gradientUnits="userSpaceOnUse" id="color-8"><stop offset="0" stop-color="#127db5"/><stop offset="1" stop-color="#3a4348"/></linearGradient><radialGradient cx="125.14805" cy="108.37115" r="12.63258" gradientUnits="userSpaceOnUse" id="color-9"><stop offset="0" stop-color="#f4f4f4"/><stop offset="1" stop-color="#d3d3d3"/></radialGradient></defs><g transform="translate(34.98175,69)"><g data-paper-data="{&quot;isPaintingLayer&quot;:true}" fill-rule="nonzero" stroke-linecap="butt" stroke-linejoin="miter" stroke-miterlimit="10" stroke-dasharray="" stroke-dashoffset="0" style="mix-blend-mode: normal"><path d="M21,150c0,-120.95036 98.04964,-219 219,-219c120.95036,0 219,98.04964 219,219c0,120.95036 -98.04964,219 -219,219c-120.95036,0 -219,-98.04964 -219,-219z" fill="#ffffff" stroke="none" stroke-width="0"/><path d="M-34.98175,-21.6197v0z" fill="url(#color-1)" stroke="none" stroke-width="0"/><g><path d="M353.19489,193.52766c0,44.10406 72.62596,73.46231 36.60536,100.72798c-2.83827,2.14837 -7.58582,4.80605 -10.61044,6.80034c-3.50898,2.31362 -19.89013,-17.49732 -23.4895,-15.06916c-37.48326,25.28621 -41.45427,-26.07116 -94.6138,-26.07116c-0.87264,0 -32.93073,25.79546 -33.78572,25.78086c-88.6603,-1.5132 -85.74296,-14.04422 -110.78972,-82.17718c-7.51315,-20.43756 -12.23248,-15.76835 -12.23248,-37.20652c0,-32.11594 -7.69443,-55.18833 -12.22913,-78.37819c-1.09866,-5.61838 -5.10826,-12.73605 -7.79324,-19.65724c-1.0697,-2.75747 -4.35909,-6.83369 -3.45819,-8.70917c14.70481,-30.61209 73.34608,-61.18566 137.41224,-61.18566c60.9049,0 68.72292,45.95351 96.2938,81.10855c13.04249,16.63016 52.28482,12.69423 63.38035,33.89896c0.56223,1.07451 0.99406,3.17436 1.30724,5.50181c0.46788,3.47695 0.67103,7.46166 0.64873,9.29428c-0.25744,21.13301 -26.64544,45.47835 -26.64544,65.34152z" fill="url(#color-2)" stroke="none" stroke-width="0"/><path d="M299.75615,199.06924c0,25.70788 -26.51212,46.54828 -59.21647,46.54828c-32.70436,0 -59.21647,-20.84036 -59.21647,-46.54828c0,-17.84258 10.84548,-34.30322 29.59404,-42.11621c8.2647,-3.4441 19.61654,-4.43207 29.62243,-4.43207c32.70436,0 59.21647,20.84041 59.21647,46.54828z" fill="url(#color-3)" stroke="#7f7f7f" stroke-width="1"/><path d="M245.84203,200.71041l26.31062,-39.18883c0,0 8.55273,4.98876 12.53899,7.63489c4.4295,2.94037 9.62813,10.49726 9.62813,10.49726l-41.13563,22.87494z" fill="url(#color-4)" stroke="none" stroke-width="0"/><path d="M213.85895,202.48572l-10.87148,-41.52368c0,0 8.19454,-2.30934 12.52613,-4.34142c4.81325,-2.25802 17.08032,-5.1108 17.08032,-5.1108l-3.26895,55.44577z" fill="url(#color-5)" stroke="none" stroke-width="0"/><path d="M116.00728,283.7882l0.84903,-67.57527l221.54339,16.98027l39.9036,68.42425z" fill="url(#color-6)" stroke="none" stroke-width="0"/><path d="M116.11524,283.08989l-35.9408,-223.26859l70.79249,41.38638l64.06193,159.60001z" fill="url(#color-7)" stroke="#000000" stroke-width="0"/><path d="M118.11326,282.26771l16.97056,-116.18423l162.35983,41.19428l41.50314,26.65597z" fill="url(#color-8)" stroke="none" stroke-width="0"/><path d="M134.62252,108.37115c0,6.9768 -4.24186,12.63262 -9.47443,12.63262c-5.23257,0 -9.47447,-5.65582 -9.47447,-12.63262c0,-6.9768 4.24186,-12.63262 9.47447,-12.63262c5.23257,0 9.47443,5.65582 9.47443,12.63262z" fill="url(#color-9)" stroke="none" stroke-width="0"/></g></g></g></svg>