<svg version="1.1" xmlns="http://www.w3.org/2000/svg" xmlns:xlink="http://www.w3.org/1999/xlink" width="429.11354" height="152.91133" viewBox="0,0,429.11354,152.91133"><defs><radialGradient cx="240.00001" cy="180" r="209.55676" gradientUnits="userSpaceOnUse" id="color-1"><stop offset="0" stop-color="#000000"/><stop offset="1" stop-color="#000000" stop-opacity="0"/></radialGradient><radialGradient cx="240.00001" cy="180" r="209.55676" gradientUnits="userSpaceOnUse" id="color-2"><stop offset="0" stop-color="#000000"/><stop offset="1" stop-color="#000000" stop-opacity="0"/></radialGradient><radialGradient cx="240.00001" cy="180" r="209.55676" gradientUnits="userSpaceOnUse" id="color-3"><stop offset="0" stop-color="#000000"/><stop offset="1" stop-color="#000000" stop-opacity="0"/></radialGradient></defs><g transform="translate(-25.44324,-97.41204)"><g data-paper-data="{&quot;isPaintingLayer&quot;:true}" fill-rule="nonzero" stroke-linejoin="miter" stroke-miterlimit="10" stroke-dasharray="" stroke-dashoffset="0" style="mix-blend-mode: normal"><path d="M30.44325,180c0,-42.85064 34.73732,-77.58796 77.58796,-77.58796c1.40372,0 266.73634,0.03727 268.12171,0.11089c40.90514,2.17369 73.40386,36.03013 73.40386,77.47707c0,26.69879 -13.48542,50.2479 -34.01643,64.20746c-2.22434,-1.62389 -4.30339,-3.35975 -5.91846,-5.44092c-2.38308,-3.07082 -3.33083,-6.63196 -6.32228,-9.54256c-3.56576,-3.46939 -17.13461,-10.06199 -20.80656,-12.07137c-6.07396,-3.32382 -11.35308,-7.07867 -18.12501,-9.1907c-5.21376,-1.62607 -9.39538,-1.76994 -14.31257,-2.9619c-5.56706,-1.34949 -11.11148,-4.5638 -16.82202,-5.13485c-5.01365,-0.50136 -10.13443,-0.59519 -15.23705,-0.68667c-3.16927,-1.37427 -6.71705,-2.13617 -10.49639,-2.17847c-10.19565,-0.11413 -21.40617,-0.15576 -31.60246,-0.15576c-2.45937,0 -5.02758,1.15098 -7.368,1.15576c-7.4176,0.01517 -14.83798,0.20193 -22.25285,0c-7.57092,-0.20618 -15.21438,-1.98883 -22.7767,-2c-43.0098,-0.06353 -86.0197,0.01533 -129.02954,0c-2.5332,-0.0009 -5.35536,-1.00877 -7.98132,-1c-15.33947,0.05124 -30.67912,0.01527 -46.01868,0c-3.59072,-0.00357 -6.29118,-0.31739 -8.7155,-0.71788c-0.86138,-4.62932 -1.31172,-9.40313 -1.31172,-14.28212z" fill="url(#color-1)" stroke="#ffffff" stroke-width="10" stroke-linecap="butt"/><path d="" fill="url(#color-2)" stroke="#ffffff" stroke-width="10" stroke-linecap="butt"/><path d="" fill="url(#color-3)" stroke="#ffffff" stroke-width="10" stroke-linecap="butt"/><g fill="none" stroke="#ffffff" stroke-width="10" stroke-linecap="round"><path d="M135.5702,143.14577l-22.44699,22.44699l-22.70134,-22.70134"/><path d="M135.5702,123.94184l-22.44699,22.44699l-22.70134,-22.70134"/></g><text transform="translate(164.21174,160.41225) scale(1.04424,1.04424)" font-size="40" xml:space="preserve" fill="#ffffff" fill-rule="nonzero" stroke="none" stroke-width="1" stroke-linecap="butt" stroke-linejoin="miter" stroke-miterlimit="10" stroke-dasharray="" stroke-dashoffset="0" font-family="Sans Serif" font-weight="normal" text-anchor="start" style="mix-blend-mode: normal"><tspan x="0" dy="0">GO DOWN</tspan><tspan x="0" dy="46.150000000000006px"> </tspan></text></g></g></svg>