<svg version="1.1" xmlns="http://www.w3.org/2000/svg" xmlns:xlink="http://www.w3.org/1999/xlink" width="86.98198" height="86.98198" viewBox="0,0,86.98198,86.98198"><defs><radialGradient cx="240" cy="180" r="41.75" gradientUnits="userSpaceOnUse" id="color-1"><stop offset="0" stop-color="#000000"/><stop offset="1" stop-color="#000000" stop-opacity="0"/></radialGradient></defs><g transform="translate(-196.50901,-136.50901)"><g data-paper-data="{&quot;isPaintingLayer&quot;:true}" fill-rule="nonzero" stroke-linecap="butt" stroke-linejoin="miter" stroke-miterlimit="10" stroke-dasharray="" stroke-dashoffset="0" style="mix-blend-mode: normal"><path d="M198.25,221.75v-83.5h83.5v83.5z" fill="url(#color-1)" stroke="none" stroke-width="0"/><path d="M201.50901,180c0,-21.25799 17.23301,-38.49099 38.49099,-38.49099c21.25799,0 38.49099,17.23301 38.49099,38.49099c0,21.25799 -17.23301,38.49099 -38.49099,38.49099c-21.25799,0 -38.49099,-17.23301 -38.49099,-38.49099z" fill="none" stroke="#ffffff" stroke-width="10"/><path d="M217.0496,210.69878c-0.00518,-0.20146 -0.00778,-0.40355 -0.00778,-0.60625c0,-12.79152 10.36957,-23.16109 23.16108,-23.16109c12.79152,0 23.16109,10.36957 23.16109,23.16109c0,0.33748 -0.00722,0.67327 -0.02151,1.00723" fill="none" stroke="#ffffff" stroke-width="15"/><path d="M220.63254,171.0151c0,-10.69635 8.6711,-19.36746 19.36746,-19.36746c10.69635,0 19.36746,8.6711 19.36746,19.36746c0,10.69635 -8.6711,19.36746 -19.36746,19.36746c-10.69635,0 -19.36746,-8.6711 -19.36746,-19.36746z" fill="#ffffff" stroke="none" stroke-width="0"/></g></g></svg>