<svg version="1.1" xmlns="http://www.w3.org/2000/svg" xmlns:xlink="http://www.w3.org/1999/xlink" width="394.83106" height="221" viewBox="0,0,394.83106,221"><g transform="translate(-52.66894,-130.5)"><g data-paper-data="{&quot;isPaintingLayer&quot;:true}" fill="#ffffff" fill-rule="nonzero" stroke-linecap="butt" stroke-linejoin="miter" stroke-miterlimit="10" stroke-dasharray="" stroke-dashoffset="0" style="mix-blend-mode: normal"><path d="M64.5,279.5l51,-65l17,54z" stroke="#9c9c9c" stroke-width="10"/><path d="M86.5,271.5c0,-3.8148 0.28481,-68.56307 0.83433,-72.22472c5.4172,-36.09683 36.55911,-63.77528 74.16567,-63.77528c3.60204,0 213.14477,0.25393 216.61127,0.74486c31.97327,4.52812 57.46121,29.21891 63.18374,60.79229c0.79161,4.36763 1.205,69.86696 1.205,74.46285c0,37.40567 -27.38353,68.41558 -63.19754,74.07666c-3.84481,0.60774 -213.78678,0.92334 -217.80246,0.92334c-41.42136,0 -75,-33.57864 -75,-75z" stroke="#9c9c9c" stroke-width="10"/><path d="M83.04452,262.87698c2.73802,-3.8535 6.48841,-7.14544 9.88771,-10.54474l2.2,-2.2c0.45241,-0.45241 1.07741,-0.73223 1.76777,-0.73223c1.38071,0 2.5,1.11929 2.5,2.5c0,0.54442 -0.17402,1.0482 -0.46948,1.45874l-2.77875,3.96964c-0.6944,1.53789 -1.62141,3.02914 -2.62251,4.50105c1.57457,-0.75272 3.15169,-1.51232 4.7687,-2.21983c0,0 2.29039,-1.00205 3.29244,1.28835c1.00205,2.29039 -1.28835,3.29244 -1.28835,3.29244c-2.48457,1.08689 -4.87753,2.28522 -7.3073,3.40349c0.58328,0.47831 1.13756,1.00775 1.73959,1.45302l-0.04011,0.83949l0.39523,-0.12161l0.78287,2.54434c0.08283,0.24856 0.12768,0.51448 0.12768,0.79088c0,1.38071 -1.11929,2.5 -2.5,2.5c-0.99801,0 -1.85943,-0.58479 -2.26029,-1.43041l-1.16638,-2.33276c-0.16679,-0.14016 -0.33365,-0.28028 -0.50071,-0.4203c-2.15096,-0.71338 -4.91566,0.02149 -7.0945,0.17712c0,0 -2.49365,0.17812 -2.67176,-2.31553c-0.0947,-1.3258 0.56584,-1.99706 1.20532,-2.33501c-0.00772,-0.07999 -0.01167,-0.16109 -0.01167,-0.2431c0,-1.05024 0.64761,-1.94922 1.56527,-2.31939c0.01767,-0.8369 0.47925,-1.50363 0.47925,-1.50363z" stroke="none" stroke-width="0.5"/></g></g></svg>